name analog
datacolumns 19
datarows 56
range 0.728 0.7555000000000001
endheader
time	ground_force_vx	ground_force_vy	ground_force_vz	ground_force_px	ground_force_py	ground_force_pz	l_ground_force_vx	l_ground_force_vy	l_ground_force_vz	l_ground_force_px	l_ground_force_py	l_ground_force_pz	ground_torque_x	ground_torque_y	ground_torque_z	l_ground_torque_x	l_ground_torque_y	l_ground_torque_z
0.728	-0.0	-0.0	-0.0	0.3918231725692749	10.92809009552002	-104.25732421875	6.458386421203613	-22.998485565185547	-438.09185791015625	-0.0	-0.0	-0.0	-0.0	-0.0	-0.0	133107.109375	13572.7138671875	1602.6949462890625
0.7285	-0.0	-0.0	-0.0	0.1307625472545623	12.668719291687012	-111.81771087646484	6.659236907958984	-22.78699493408203	-434.0652465820313	-0.0	-0.0	-0.0	-0.0	-0.0	-0.0	131780.953125	13016.5390625	1602.78857421875
0.729	-0.0	-0.0	-0.0	-0.142952874302864	14.160041809082031	-119.39797973632812	7.09686279296875	-22.345386505126957	-428.5019226074219	-0.0	-0.0	-0.0	-0.0	-0.0	-0.0	130027.296875	12996.54296875	1749.5498046875
0.7295	-0.0	-0.0	-0.0	-0.1004801243543624	15.716270446777344	-123.80072021484376	6.895898818969727	-22.386829376220703	-421.8463439941406	-0.0	-0.0	-0.0	-0.0	-0.0	-0.0	128150.6953125	12801.95703125	1763.3157958984375
0.73	-0.0	-0.0	-0.0	-0.3202245235443115	17.760562896728516	-128.03826904296875	6.812416076660156	-21.81545639038086	-416.07611083984375	-0.0	-0.0	-0.0	-0.0	-0.0	-0.0	126037.828125	12594.21484375	1808.8101806640625
0.7305	-0.0	-0.0	-0.0	-0.9022459983825684	19.060487747192383	-134.3749237060547	7.050058364868164	-21.703834533691406	-407.1836242675781	-0.0	-0.0	-0.0	-0.0	-0.0	-0.0	123996.5	12458.18359375	1852.684814453125
0.731	-0.0	-0.0	-0.0	-0.8076553344726562	20.748668670654297	-138.6878662109375	7.073537349700928	-21.331972122192383	-399.7786254882813	-0.0	-0.0	-0.0	-0.0	-0.0	-0.0	121173.7578125	12185.2978515625	1907.445556640625
0.7315	-0.0	-0.0	-0.0	-1.9626312255859373	21.930620193481445	-142.64869689941406	7.227741241455078	-21.159578323364254	-391.1414184570313	-0.0	-0.0	-0.0	-0.0	-0.0	-0.0	118729.3125	11744.3828125	1891.94580078125
0.732	-0.0	-0.0	-0.0	-2.145381212234497	23.46033477783203	-144.72833251953125	7.101023197174072	-21.32347297668457	-382.1546325683594	-0.0	-0.0	-0.0	-0.0	-0.0	-0.0	116679.1875	11714.2353515625	1823.27685546875
0.7325	-0.0	-0.0	-0.0	-3.130406379699707	24.797521591186523	-148.6282958984375	6.541457176208496	-20.92840385437012	-375.3380126953125	-0.0	-0.0	-0.0	-0.0	-0.0	-0.0	114657.96875	11580.59375	1802.39306640625
0.733	-0.0	-0.0	-0.0	-3.9522705078125	26.09198570251465	-150.71580505371094	6.919441223144531	-20.359939575195312	-369.2207336425781	-0.0	-0.0	-0.0	-0.0	-0.0	-0.0	112375.0625	11516.34765625	1831.2032470703125
0.7335	-0.0	-0.0	-0.0	-4.50690507888794	27.277448654174805	-154.24781799316406	6.403430461883545	-19.95733070373535	-362.1608581542969	-0.0	-0.0	-0.0	-0.0	-0.0	-0.0	110418.953125	11425.5244140625	1659.539306640625
0.734	-0.0	-0.0	-0.0	-5.418728828430176	28.01003837585449	-156.62889099121094	6.0093865394592285	-19.69879913330078	-354.828369140625	-0.0	-0.0	-0.0	-0.0	-0.0	-0.0	108336.0546875	11154.1875	1586.8109130859375
0.7345	-0.0	-0.0	-0.0	-5.957069396972656	28.63087654113769	-160.17308044433594	5.674627304077148	-19.473506927490234	-349.489501953125	-0.0	-0.0	-0.0	-0.0	-0.0	-0.0	106358.65625	11322.0419921875	1548.317626953125
0.735	-0.0	-0.0	-0.0	-5.712186813354492	29.28069305419922	-163.07814025878906	5.299830436706543	-18.704025268554688	-343.4854736328125	-0.0	-0.0	-0.0	-0.0	-0.0	-0.0	104544.4453125	10982.6103515625	1348.304931640625
0.7355	-0.0	-0.0	-0.0	-5.974646091461182	29.85622787475586	-166.5907440185547	4.790382385253906	-18.545263290405277	-336.6807861328125	-0.0	-0.0	-0.0	-0.0	-0.0	-0.0	102635.125	10981.001953125	1170.810546875
0.736	-0.0	-0.0	-0.0	-6.377430438995361	29.748950958251957	-167.32565307617188	4.05799674987793	-17.75265884399414	-330.1269836425781	-0.0	-0.0	-0.0	-0.0	-0.0	-0.0	101132.6171875	10780.611328125	1118.02001953125
0.7365	-0.0	-0.0	-0.0	-6.111886501312256	30.17353820800781	-171.029296875	3.8824303150177	-17.46516990661621	-325.84051513671875	-0.0	-0.0	-0.0	-0.0	-0.0	-0.0	99629.0703125	10914.458984375	940.6041870117188
0.737	-0.0	-0.0	-0.0	-6.199291229248047	30.195858001708984	-173.5012969970703	3.792004823684693	-16.713741302490234	-321.5566711425781	-0.0	-0.0	-0.0	-0.0	-0.0	-0.0	98032.4921875	11168.5634765625	880.8292846679688
0.7375	-0.0	-0.0	-0.0	-5.68680477142334	30.52789306640625	-177.1226348876953	3.148578405380249	-16.604476928710938	-315.1067810058594	-0.0	-0.0	-0.0	-0.0	-0.0	-0.0	96800.140625	11029.9013671875	710.3964233398438
0.738	-0.0	-0.0	-0.0	-5.263420104980469	30.61916923522949	-182.50003051757807	2.9274559020996094	-16.205533981323242	-309.6131591796875	-0.0	-0.0	-0.0	-0.0	-0.0	-0.0	95240.8046875	10915.4501953125	672.739013671875
0.7385	-0.0	-0.0	-0.0	-5.308474063873291	30.86341857910156	-184.9770965576172	2.617342472076416	-15.522350311279297	-306.3790588378906	-0.0	-0.0	-0.0	-0.0	-0.0	-0.0	93880.2578125	11129.5947265625	583.7210083007812
0.739	-0.0	-0.0	-0.0	-5.173621654510498	31.664308547973636	-189.03549194335935	2.705458641052246	-15.500236511230469	-300.7055358886719	-0.0	-0.0	-0.0	-0.0	-0.0	-0.0	92373.0078125	11045.724609375	413.4309387207031
0.7395	-0.0	-0.0	-0.0	-5.062602996826172	31.57491111755371	-192.5731964111328	2.173527479171753	-15.058734893798828	-296.8655090332031	-0.0	-0.0	-0.0	-0.0	-0.0	-0.0	90992.265625	10928.44140625	442.5298767089844
0.74	-0.0	-0.0	-0.0	-4.616919040679932	32.465789794921875	-196.8981170654297	2.306480407714844	-14.97052001953125	-292.8509216308594	-0.0	-0.0	-0.0	-0.0	-0.0	-0.0	89647.6171875	10934.7109375	353.8022766113281
0.7405	-0.0	-0.0	-0.0	-4.081113815307617	32.599483489990234	-199.90045166015625	2.439398765563965	-14.838337898254396	-288.8365478515625	-0.0	-0.0	-0.0	-0.0	-0.0	-0.0	88597.5546875	11013.4052734375	405.9701232910156
0.741	-0.0	-0.0	-0.0	-4.750764846801758	33.13392639160156	-205.6370086669922	2.328521013259888	-15.081064224243164	-283.5111083984375	-0.0	-0.0	-0.0	-0.0	-0.0	-0.0	87502.03125	11108.6015625	183.17984008789065
0.7415	-0.0	-0.0	-0.0	-4.147354602813721	33.58003616333008	-209.0775909423828	1.9288873672485352	-15.014686584472656	-278.7930908203125	-0.0	-0.0	-0.0	-0.0	-0.0	-0.0	86356.546875	11142.6875	316.5102844238281
0.742	-0.0	-0.0	-0.0	-3.924330234527588	33.91365051269531	-212.96380615234372	2.307551383972168	-14.794415473937988	-276.87725830078125	-0.0	-0.0	-0.0	-0.0	-0.0	-0.0	85318.890625	10987.8193359375	242.8802490234375
0.7425	-0.0	-0.0	-0.0	-3.878934621810913	34.20637512207031	-216.85247802734372	2.21648383140564	-15.103008270263672	-274.17510986328125	-0.0	-0.0	-0.0	-0.0	-0.0	-0.0	84411.7109375	11214.5751953125	153.79885864257812
0.743	-0.0	-0.0	-0.0	-3.0989716053009038	34.56067657470703	-219.59683227539065	2.063720941543579	-14.72803783416748	-271.5542297363281	-0.0	-0.0	-0.0	-0.0	-0.0	-0.0	83678.3984375	11411.375	-24.65445899963379
0.7435	-0.0	-0.0	-0.0	-2.674602031707764	35.09552383422852	-223.0297393798828	1.7742156982421875	-14.794801712036133	-269.80145263671875	-0.0	-0.0	-0.0	-0.0	-0.0	-0.0	83202.703125	11538.7001953125	-91.48817443847656
0.744	-0.0	-0.0	-0.0	-2.47607421875	35.65216064453125	-225.8623809814453	1.7308919429779053	-14.596699714660645	-267.79931640625	-0.0	-0.0	-0.0	-0.0	-0.0	-0.0	82380.6328125	11505.962890625	-195.6377868652344
0.7445	-0.0	-0.0	-0.0	-1.8734207153320312	35.986961364746094	-230.73031616210935	1.5080833435058594	-14.152959823608398	-266.7518310546875	-0.0	-0.0	-0.0	-0.0	-0.0	-0.0	81661.328125	11813.900390625	-239.83462524414065
0.745	-0.0	-0.0	-0.0	-2.230262756347656	36.2544174194336	-231.49462890625	1.129094123840332	-13.869117736816406	-264.3284606933594	-0.0	-0.0	-0.0	-0.0	-0.0	-0.0	81181.7578125	11956.0908203125	-291.2859191894531
0.7455	-0.0	-0.0	-0.0	-1.8761320114135744	36.40299606323242	-233.4412078857422	1.2662584781646729	-13.51321792602539	-263.35601806640625	-0.0	-0.0	-0.0	-0.0	-0.0	-0.0	80801.4140625	12090.373046875	-484.33502197265625
0.746	-0.0	-0.0	-0.0	-1.5135577917099	36.91849899291992	-236.02145385742188	1.0003570318222046	-13.09290599822998	-261.5145874023437	-0.0	-0.0	-0.0	-0.0	-0.0	-0.0	80360.453125	12219.5	-401.4998474121094
0.7465	-0.0	-0.0	-0.0	-1.3530893325805664	37.55191421508789	-238.39645385742188	1.2914083003997805	-12.82787799835205	-260.2858581542969	-0.0	-0.0	-0.0	-0.0	-0.0	-0.0	79996.3359375	12514.220703125	-544.5616455078125
0.747	-0.0	-0.0	-0.0	-1.2953451871871948	37.570255279541016	-239.73861694335935	0.9120674729347228	-12.51682949066162	-259.5032958984375	-0.0	-0.0	-0.0	-0.0	-0.0	-0.0	79735.5546875	12418.5576171875	-581.5995483398438
0.7475	-0.0	-0.0	-0.0	-0.9988669157028198	37.45230865478516	-241.0528259277344	1.224677562713623	-12.255610466003418	-257.4916381835937	-0.0	-0.0	-0.0	-0.0	-0.0	-0.0	79703.9921875	12654.05078125	-594.2108154296875
0.748	-0.0	-0.0	-0.0	-0.9732836484909058	37.43075942993164	-242.29733276367188	0.6039694547653198	-11.898258209228516	-257.2415466308594	-0.0	-0.0	-0.0	-0.0	-0.0	-0.0	79483.0390625	12824.5888671875	-691.9356689453125
0.7485	-0.0	-0.0	-0.0	-1.665127158164978	37.50270080566406	-240.66644287109372	0.0631991624832153	-11.7677583694458	-256.62646484375	-0.0	-0.0	-0.0	-0.0	-0.0	-0.0	79211.265625	12860.7373046875	-796.8287353515625
0.749	-0.0	-0.0	-0.0	-2.094156503677368	37.92270278930664	-242.90403747558597	-0.1050148010253906	-11.856017112731934	-257.4259033203125	-0.0	-0.0	-0.0	-0.0	-0.0	-0.0	79185.3984375	13503.525390625	-839.131103515625
0.7495	-0.0	-0.0	-0.0	-2.387580394744873	37.95805358886719	-245.4600524902344	-0.370879054069519	-12.016641616821287	-256.7475891113281	-0.0	-0.0	-0.0	-0.0	-0.0	-0.0	79104.9140625	13667.5224609375	-1146.2030029296875
0.75	-0.0	-0.0	-0.0	-2.492788076400757	38.03767776489258	-244.1103515625	-0.9288525581359864	-11.720805168151855	-254.83956909179688	-0.0	-0.0	-0.0	-0.0	-0.0	-0.0	78982.015625	13885.7314453125	-1198.9248046875
0.7505000000000001	-0.0	-0.0	-0.0	-2.933302402496338	37.59207534790039	-245.35595703125	-1.3777351379394531	-11.414224624633787	-255.311767578125	-0.0	-0.0	-0.0	-0.0	-0.0	-0.0	78763.5078125	14052.693359375	-1375.386474609375
0.751	-0.0	-0.0	-0.0	-3.080578565597534	37.41389465332031	-245.0018615722656	-1.236207127571106	-11.611442565917969	-254.7174072265625	-0.0	-0.0	-0.0	-0.0	-0.0	-0.0	78323.0859375	14337.677734375	-1464.30224609375
0.7515000000000001	-0.0	-0.0	-0.0	-3.4316611289978027	37.22076797485352	-246.7902984619141	-1.528761625289917	-11.522994041442873	-254.31097412109372	-0.0	-0.0	-0.0	-0.0	-0.0	-0.0	77910.6796875	14286.4951171875	-1509.965576171875
0.752	-0.0	-0.0	-0.0	-3.389999389648437	37.44086837768555	-247.01312255859372	-1.3925362825393677	-11.570140838623049	-251.1211853027344	-0.0	-0.0	-0.0	-0.0	-0.0	-0.0	77748.328125	14838.298828125	-1525.76904296875
0.7525000000000001	-0.0	-0.0	-0.0	-3.7118537425994873	36.43365478515625	-248.0396423339844	-2.0198001861572266	-11.210363388061523	-251.76397705078125	-0.0	-0.0	-0.0	-0.0	-0.0	-0.0	77338.546875	14495.3173828125	-1569.6070556640625
0.753	-0.0	-0.0	-0.0	-3.3487274646759038	35.91289138793945	-246.87277221679688	-1.9858331680297847	-11.563397407531738	-251.55039978027344	-0.0	-0.0	-0.0	-0.0	-0.0	-0.0	77367.7109375	14958.078125	-1699.7847900390625
0.7535000000000001	-0.0	-0.0	-0.0	-3.0468556880950928	35.76185607910156	-246.84552001953125	-2.067767381668091	-11.984450340270996	-250.8516845703125	-0.0	-0.0	-0.0	-0.0	-0.0	-0.0	77243.34375	14953.228515625	-1777.525146484375
0.754	-0.0	-0.0	-0.0	-3.61662220954895	35.30894088745117	-248.04196166992188	-2.5522592067718506	-12.480886459350586	-250.6107482910156	-0.0	-0.0	-0.0	-0.0	-0.0	-0.0	77031.6015625	15140.732421875	-1899.11767578125
0.7545000000000001	-0.0	-0.0	-0.0	-3.534987211227417	34.699588775634766	-247.54965209960935	-2.9199059009552	-12.54167938232422	-251.3687286376953	-0.0	-0.0	-0.0	-0.0	-0.0	-0.0	77188.1015625	15460.984375	-1960.564208984375
0.755	-0.0	-0.0	-0.0	-3.4462411403656006	34.610694885253906	-247.3257598876953	-3.024024724960327	-12.71832275390625	-249.1837615966797	-0.0	-0.0	-0.0	-0.0	-0.0	-0.0	76911.359375	15539.2529296875	-2207.279296875
0.7555000000000001	-0.0	-0.0	-0.0	-2.9642562866210938	34.23404312133789	-248.7190704345703	-3.362938165664673	-12.332929611206056	-249.21490478515625	-0.0	-0.0	-0.0	-0.0	-0.0	-0.0	76742.921875	15996.3427734375	-2394.8291015625
